<?xml version="1.0" encoding="UTF-8"?>
<svg xmlns="http://www.w3.org/2000/svg" viewBox="0 0 218.75 223.15">
  <defs>
    <style>
      .cls-1 {
        fill: #fed600;
      }

      .cls-2 {
        fill: #d9a520;
      }

      .cls-3 {
        isolation: isolate;
      }

      .cls-4 {
        mix-blend-mode: multiply;
      }

      .cls-5 {
        fill: #3e4347;
      }
    </style>
  </defs>
  <g class="cls-3">
    <g id="Layer_2" data-name="Layer 2">
      <g id="Layer_1-2" data-name="Layer 1">
        <g class="cls-4">
          <circle class="cls-5" cx="114.04" cy="118.43" r="99.21"/>
          <path class="cls-5" d="M114.04,223.15c-57.74,0-104.71-46.97-104.71-104.71S56.3,13.72,114.04,13.72s104.71,46.97,104.71,104.71-46.97,104.71-104.71,104.71ZM114.04,24.72c-51.67,0-93.71,42.04-93.71,93.71s42.04,93.71,93.71,93.71,93.71-42.04,93.71-93.71S165.71,24.72,114.04,24.72Z"/>
        </g>
        <g>
          <circle class="cls-1" cx="104.71" cy="104.71" r="99.21"/>
          <path class="cls-2" d="M104.71,209.43C46.97,209.43,0,162.46,0,104.71S46.97,0,104.71,0s104.71,46.97,104.71,104.71-46.97,104.71-104.71,104.71ZM104.71,11C53.04,11,11,53.04,11,104.71s42.04,93.71,93.71,93.71,93.71-42.04,93.71-93.71S156.39,11,104.71,11Z"/>
        </g>
        <path d="M143,115.97c0,13.48-10.73,21.28-31.3,21.28h-40.47V59.25h38.23c19.56,0,29.62,8.13,29.62,20.28,0,7.8-4.02,13.82-10.4,17.16,8.72,2.79,14.31,9.47,14.31,19.28ZM89.23,72.84v18.39h18c8.83,0,13.64-3.12,13.64-9.25s-4.81-9.14-13.64-9.14h-18ZM124.78,114.07c0-6.57-5.03-9.69-14.42-9.69h-21.13v19.28h21.13c9.39,0,14.42-2.9,14.42-9.58Z"/>
      </g>
    </g>
  </g>
</svg>