<?xml version="1.0" encoding="UTF-8"?>
<svg xmlns="http://www.w3.org/2000/svg" viewBox="0 0 268.08 331.86">
  <defs>
    <style>
      .cls-1 {
        fill: #fed600;
      }

      .cls-2 {
        fill: #fff;
      }

      .cls-3 {
        fill: #32363a;
      }

      .cls-4 {
        fill: #d9a520;
      }

      .cls-5 {
        isolation: isolate;
      }

      .cls-6 {
        fill: #f29a2e;
      }

      .cls-7 {
        fill: #e08828;
      }

      .cls-8, .cls-9 {
        mix-blend-mode: multiply;
      }

      .cls-9 {
        opacity: .84;
      }

      .cls-10 {
        fill: #3e4347;
      }
    </style>
  </defs>
  <g class="cls-5">
    <g id="Layer_2" data-name="Layer 2">
      <g id="Layer_1-2" data-name="Layer 1">
        <g class="cls-9">
          <path class="cls-10" d="M262.46,171.49c-8.43-25.09-22.8-37.24-34.26-42.11,1.57-9.14,4.13-19.37,8.67-31.37,12.2-32.25-5.01-68.35-38.01-80.83-33-12.49-69.8,3.18-82,35.43-2.42,6.4-4.93,12.04-7.49,17.11-2.2-5.39-5.23-11.07-9.27-16.98-33.23-48.26-38.71-14.08-9.06,45.72-8.64,11.42-16.6,20.92-22.11,35.48-15.04,39.75,6.37,85.15,47.62,100.76,41.26,15.61,87.35-4.25,102.39-44.01,4.12-10.89,5.34-20.56,6.14-30.72,28.28,52.36,54.91,64.26,37.37,11.5Z"/>
        </g>
        <g>
          <g>
            <path class="cls-3" d="M90.59,39.86c28.77,42.07,6.01,72.78,1.92,66.16-41.51-71.8-38.78-119.68-1.92-66.16Z"/>
            <path class="cls-3" d="M252.95,158.6c20.51,61.67-19.35,34.99-51.64-41.39-2.82-7.26,35.4-6.91,51.64,41.39"/>
            <path class="cls-10" d="M227.35,85.12c12.2-32.25-5.01-68.35-38.01-80.83-33-12.49-69.8,3.18-82,35.43-16.46,43.51-37,52.46-47.92,81.34-15.04,39.75,6.37,85.15,47.62,100.76,41.26,15.61,87.35-4.25,102.39-44.01,10.93-28.88,1.46-49.18,17.92-92.69"/>
          </g>
          <path class="cls-2" d="M210.51,84.32c17.59-46.51-23.69-51.84-36.89-16.96l-13.88-5.25c12.82-35.02-21.65-58.35-39.25-11.85-13.76,36.38-37.28,53.21-46.36,77.21-16.46,43.51,4.62,75.06,35.74,86.84,31.13,11.78,67.95,1.7,84.27-41.43,9.08-24,2.59-52.18,16.36-88.56"/>
          <g>
            <path class="cls-10" d="M201.81,73.32c-2.41,6.38-7.63,9.97-11.76,8.41-4.13-1.56-5.66-7.71-3.24-14.09,2.41-6.38,7.63-9.97,11.76-8.41s5.66,7.71,3.24,14.09"/>
            <path class="cls-10" d="M149.3,53.45c-2.41,6.38-7.63,9.97-11.76,8.41s-5.66-7.71-3.24-14.09c2.41-6.38,7.63-9.97,11.76-8.41,4.13,1.56,5.66,7.71,3.24,14.09"/>
          </g>
          <path class="cls-7" d="M145.96,73.62l30,11.35c-3.55,9.38-13.28,14.7-21.53,11.58-8.25-3.12-12.16-13.18-8.47-22.93"/>
          <path class="cls-6" d="M179.29,87.52l-20.46-2.59-17.05-11.6c4.54-12,16.34-18.26,26.84-14.28s15.06,16.85,10.66,28.47"/>
          <g>
            <path class="cls-10" d="M173.3,65.96c.7,1.55.51,3.19-.15,3.8-.66.61-1.88-.71-2.57-2.26-.7-1.55-.51-3.19.15-3.8.89-.09,2.25.85,2.57,2.26"/>
            <path class="cls-10" d="M160.55,61.14c-1.55.7-2.49,2.06-2.4,2.95.09.89,1.88.71,3.43,0s2.49-2.06,2.4-2.95c-.61-.66-2.25-.85-3.43,0"/>
          </g>
        </g>
        <g class="cls-8">
          <circle class="cls-10" cx="114.04" cy="227.15" r="99.21"/>
          <path class="cls-10" d="M114.04,331.86c-57.74,0-104.71-46.97-104.71-104.71s46.97-104.71,104.71-104.71,104.71,46.97,104.71,104.71-46.97,104.71-104.71,104.71ZM114.04,133.43c-51.67,0-93.71,42.04-93.71,93.71s42.04,93.71,93.71,93.71,93.71-42.04,93.71-93.71-42.04-93.71-93.71-93.71Z"/>
        </g>
        <g>
          <circle class="cls-1" cx="104.71" cy="213.43" r="99.21"/>
          <path class="cls-4" d="M104.71,318.14C46.97,318.14,0,271.17,0,213.43s46.97-104.71,104.71-104.71,104.71,46.97,104.71,104.71-46.97,104.71-104.71,104.71ZM104.71,119.71c-51.67,0-93.71,42.04-93.71,93.71s42.04,93.71,93.71,93.71,93.71-42.04,93.71-93.71-42.04-93.71-93.71-93.71Z"/>
        </g>
        <path d="M143,224.68c0,13.48-10.73,21.28-31.3,21.28h-40.47v-78h38.23c19.56,0,29.62,8.13,29.62,20.28,0,7.8-4.02,13.82-10.4,17.16,8.72,2.79,14.31,9.47,14.31,19.28ZM89.23,181.56v18.39h18c8.83,0,13.64-3.12,13.64-9.25s-4.81-9.14-13.64-9.14h-18ZM124.78,222.79c0-6.57-5.03-9.69-14.42-9.69h-21.13v19.28h21.13c9.39,0,14.42-2.9,14.42-9.58Z"/>
      </g>
    </g>
  </g>
</svg>